# xmcd
# Track frame offsets:
# 150
# 12211
# 29340
# 44900
# 58533
# 73307
#
# Disc length: 1188 seconds
# Revision: 0
# Processed by: cddbd v1.4PL0 Copyright (c) Steve Scherf et al.
# Submitted via: VisiTrax 2.9.5.180 - For more info visit www.synapsa.com
#
DISCID=5404a206
DTITLE=Artists - New Country Volume 16 June-July 2002
DYEAR=2002
DGENRE=
TTITLE0=Bill Nash Family Trio - Hold him under
TTITLE1=Katrina Lynn - I have my dream
TTITLE2=Rory Hoffman - I should be fishing
TTITLE3=Chris Schweiger - Joe's cold beer and hot, hot women
TTITLE4=Neil Wyatt - My dad (captain Tom)
TTITLE5=Tony Rendon - That's what I love about you
EXTD=
EXTT0=
EXTT1=
EXTT2=
EXTT3=
EXTT4=
EXTT5=
PLAYORDER=
